<svg xmlns="http://www.w3.org/2000/svg" width="1024" height="768" viewBox="0 0 1024 768" version="1.1"><path d="M 731 126.986 L 626.500 127.500 622.019 130.525 C 617.768 133.396, 588.142 167.385, 588.048 169.500 C 588.019 170.162, 632.687 170.500, 720.143 170.500 L 852.282 170.500 861.391 159.907 C 878.394 140.135, 879.499 138.760, 880.350 136.328 C 881.736 132.370, 879.403 128.206, 875.135 127.021 C 873.136 126.466, 863.400 126.115, 853.500 126.242 C 843.600 126.369, 788.475 126.704, 731 126.986 M 559 201.628 C 553.775 207.955, 548.825 213.895, 548 214.828 C 543.446 219.978, 537 228.349, 537 229.115 C 537 229.624, 593.469 230, 669.908 230 L 802.816 230 814.658 215.846 C 821.171 208.061, 828.658 199.061, 831.295 195.846 L 836.091 190 702.295 190.062 L 568.500 190.123 559 201.628 M 271.269 227.978 C 269.491 229.061, 262.066 234.157, 254.769 239.302 C 247.471 244.446, 237.900 251.184, 233.500 254.273 C 229.100 257.363, 225.050 260.270, 224.500 260.734 C 223.950 261.197, 219.308 264.484, 214.184 268.038 C 209.061 271.592, 201.186 277.101, 196.684 280.280 C 192.183 283.459, 185.800 287.937, 182.500 290.231 C 179.200 292.526, 176.050 294.785, 175.500 295.252 C 174.555 296.054, 166.145 302.074, 147.153 315.542 C 137.026 322.723, 134.461 326.800, 135.349 334.300 C 136.170 341.232, 138.976 344.373, 153.706 354.852 C 160.743 359.859, 173.925 369.272, 183 375.771 C 192.075 382.270, 204.450 391.075, 210.500 395.339 C 216.550 399.602, 222.236 403.697, 223.136 404.438 C 224.036 405.179, 228.086 408.083, 232.136 410.891 C 243.510 418.777, 248.571 422.372, 252 425 C 253.732 426.327, 257.113 428.783, 259.513 430.457 C 269.410 437.360, 287.535 450.447, 288 451.027 C 288.275 451.370, 291.200 453.511, 294.500 455.786 C 297.800 458.061, 309.275 466.239, 320 473.961 C 330.725 481.682, 342.159 489.350, 345.410 491 L 351.319 494 459.910 493.988 C 550.053 493.978, 569.398 493.737, 573.786 492.569 C 583.256 490.048, 588.542 485.710, 603.110 468.500 C 604.973 466.300, 606.724 464.275, 607.003 464 C 607.281 463.725, 612.218 457.875, 617.972 451 C 623.727 444.125, 628.677 438.275, 628.972 438 C 629.268 437.725, 634.218 431.875, 639.972 425 C 645.727 418.125, 650.681 412.275, 650.981 412 C 651.282 411.725, 653.546 409.032, 656.014 406.015 C 658.481 402.999, 661.243 399.624, 662.151 398.515 C 669.242 389.858, 681.071 375.877, 683.738 373 C 685.523 371.075, 686.987 369.202, 686.991 368.838 C 687.015 367.002, 668.863 366.826, 550.537 367.513 C 435.493 368.182, 422.242 368.099, 420.851 366.708 C 419.565 365.422, 419.379 363.057, 419.757 352.829 C 420.307 337.947, 418.970 327.171, 416.068 323.095 C 414.911 321.471, 407.335 315.515, 399.232 309.860 C 391.130 304.205, 384.275 299.302, 384 298.964 C 383.725 298.626, 380.575 296.389, 377 293.993 C 373.425 291.597, 368.925 288.433, 367 286.963 C 361.724 282.934, 305.392 242.851, 301.175 240.125 C 299.154 238.818, 295.250 236.057, 292.500 233.989 C 286.250 229.288, 279.779 225.999, 276.790 226.004 C 275.530 226.006, 273.046 226.894, 271.269 227.978 M 507.490 263.166 C 501.445 270.407, 496.041 276.819, 495.479 277.416 C 494.918 278.012, 492.726 280.637, 490.609 283.250 L 486.759 288 620.765 288 L 754.770 288 756.280 285.750 C 757.111 284.512, 758.636 282.600, 759.669 281.500 C 763.086 277.862, 784.494 251.839, 784.833 250.911 C 785.033 250.366, 731.580 250, 651.823 250 L 518.479 250 507.490 263.166 M 463.243 315.816 C 459.801 320.062, 455.976 324.668, 454.743 326.051 C 450.199 331.144, 442.315 340.606, 439.579 344.250 L 436.763 348 570.262 348 L 703.761 348 708.747 342.250 C 721.970 327.004, 736 309.882, 736 308.992 C 736 308.341, 690.223 308.016, 602.750 308.048 L 469.500 308.096 463.243 315.816 M 228 330 C 223.072 334.928, 224.464 336.265, 260.809 361.507 C 269.340 367.432, 282.814 376.891, 300 389.019 C 309.625 395.812, 321.100 403.906, 325.500 407.006 C 329.900 410.106, 338.900 416.542, 345.500 421.308 C 352.100 426.074, 358.443 429.980, 359.595 429.987 C 360.747 429.994, 362.435 429.177, 363.345 428.171 C 364.836 426.524, 365 421.661, 365 379.171 C 365 333.333, 364.943 331.943, 363 330 C 361.041 328.041, 359.667 328, 295.500 328 C 231.333 328, 229.959 328.041, 228 330 M 48.073 556.750 C 48.113 557.163, 55.875 570.775, 65.323 587 L 82.500 616.500 87.500 616.500 L 92.500 616.500 108.735 587 C 117.664 570.775, 124.976 557.163, 124.985 556.750 C 124.993 556.337, 121.885 556, 118.079 556 L 111.158 556 103.133 571.250 C 98.720 579.638, 93.573 589.350, 91.695 592.834 L 88.282 599.167 76.391 577.598 L 64.500 556.028 56.250 556.014 C 51.712 556.006, 48.033 556.337, 48.073 556.750 M 137.235 586.250 L 137.500 616.500 144.250 616.796 L 151 617.091 151 586.546 L 151 556 143.985 556 L 136.971 556 137.235 586.250 M 173.235 586.250 L 173.500 616.500 204 616.500 L 234.500 616.500 234.796 609.750 L 235.091 603 211.046 603 L 187 603 187 597.500 L 187 592 201.046 592 L 215.091 592 214.796 585.250 L 214.500 578.500 200.750 578.222 L 187 577.944 187 573.972 L 187 570 211 570 L 235 570 235 563 L 235 556 203.985 556 L 172.971 556 173.235 586.250 M 248 563 L 248 570 261.482 570 L 274.963 570 275.232 593.250 L 275.500 616.500 282.500 616.500 L 289.500 616.500 289.768 593.278 L 290.037 570.056 303.768 569.778 C 319.346 569.463, 318.938 569.742, 317.529 560.343 L 316.877 556 282.439 556 L 248 556 248 563 M 332.235 586.250 L 332.500 616.500 339.500 616.500 L 346.500 616.500 347 596.616 L 347.500 576.731 371.494 596.910 L 395.489 617.088 400.494 616.794 L 405.500 616.500 405.765 586.250 L 406.029 556 399.015 556 L 392 556 392 576.501 L 392 597.001 367.750 576.506 L 343.500 556.010 337.735 556.005 L 331.971 556 332.235 586.250 M 450.121 558.634 C 449.461 560.082, 444.147 569.644, 438.312 579.884 C 432.477 590.123, 426.827 600.075, 425.755 602 C 424.684 603.925, 422.507 607.794, 420.917 610.597 C 419.328 613.401, 418.322 615.988, 418.681 616.347 C 419.040 616.706, 422.177 617, 425.652 617 L 431.971 617 434.963 611.073 C 436.609 607.813, 438.331 604.914, 438.790 604.630 C 439.756 604.033, 476.888 603.537, 477.413 604.114 C 477.605 604.326, 479.173 607.313, 480.896 610.750 L 484.029 617 491.514 617 C 496.835 617, 499.001 616.638, 499.003 615.750 C 499.005 615.063, 491.467 601.342, 482.253 585.260 L 465.500 556.019 458.411 556.010 C 451.719 556.001, 451.254 556.148, 450.121 558.634 M 511.235 586.250 L 511.500 616.500 518.500 616.500 L 525.500 616.500 525.772 596.619 L 526.043 576.738 532.272 584.716 C 535.697 589.103, 541.200 596.350, 544.500 600.819 C 548.534 606.282, 551.165 608.953, 552.530 608.972 C 554.004 608.992, 557.834 604.588, 566.530 592.873 L 578.500 576.746 579 596.623 L 579.500 616.500 586.500 616.500 L 593.500 616.500 593.765 586.250 L 594.029 556 587.046 556 L 580.062 556 567.281 572.984 C 560.252 582.326, 554.231 589.976, 553.901 589.984 C 553.292 590, 533.022 563.945, 529.652 558.814 C 527.868 556.098, 527.511 556, 519.387 556 L 510.971 556 511.235 586.250 M 647 586.503 L 647 617.091 653.750 616.796 L 660.500 616.500 660.783 605.250 L 661.066 594 681.884 594 C 694.087 594, 703.971 593.557, 705.770 592.930 C 710.897 591.143, 712.271 586.728, 711.847 573.396 C 711.503 562.542, 711.363 561.908, 708.722 559.266 L 705.957 556.500 676.479 556.207 L 647 555.915 647 586.503 M 736.263 557.116 C 730.501 558.780, 730 561.122, 730 586.403 C 730 600.767, 730.402 609.787, 731.110 611.343 C 733.332 616.220, 735.200 616.500, 765.500 616.500 C 795.800 616.500, 797.668 616.220, 799.890 611.343 C 800.602 609.780, 801 600.573, 801 585.675 C 801 559.652, 800.816 558.876, 794.221 557.044 C 789.589 555.758, 740.755 555.818, 736.263 557.116 M 827.606 556.868 C 826.014 557.216, 823.764 558.770, 822.606 560.323 C 820.758 562.801, 820.500 564.519, 820.500 574.367 C 820.500 592.594, 821.158 592.986, 851.750 592.994 L 872 593 872 598 L 872 603 852.500 603 L 833 603 833 599.500 C 833 595.547, 832.640 595.456, 824.500 597.364 L 819.500 598.535 819.506 604.669 C 819.516 615.996, 822.141 616.991, 852 616.983 C 877.019 616.977, 880.119 616.608, 883.493 613.234 C 885.900 610.827, 886 610.232, 886 598.287 C 886 585.870, 885.994 585.841, 883.077 582.923 L 880.154 580 857.577 580 L 835 580 835 575 L 835 570 853 570 L 871 570 871 572.941 C 871 574.559, 871.337 576.064, 871.750 576.286 C 872.163 576.508, 875.591 576.011, 879.368 575.181 L 886.237 573.671 885.597 568.230 C 884.211 556.433, 882.959 555.964, 853.282 556.118 C 840.752 556.183, 829.198 556.521, 827.606 556.868 M 900 563 L 900 570 913.482 570 L 926.963 570 927.232 593.250 L 927.500 616.500 934.500 616.500 L 941.500 616.500 941.768 593.250 L 942.037 570 955.518 570 L 969 570 969 563 L 969 556 934.500 556 L 900 556 900 563 M 457.320 570.204 C 455.278 572.849, 446.831 589.164, 447.275 589.608 C 447.528 589.861, 452.639 589.940, 458.633 589.784 L 469.532 589.500 463.926 579.204 C 459.773 571.575, 458.062 569.244, 457.320 570.204 M 661 575.500 L 661 581 677.500 581 C 692.667 581, 694.162 580.838, 696 579 C 698.279 576.721, 698.375 576.118, 697.025 572.565 L 696.050 570 678.525 570 L 661 570 661 575.500 M 744 586.500 L 744 603 765.500 603 L 787 603 787 586.500 L 787 570 765.500 570 L 744 570 744 586.500" stroke="none" fill="#d68829" fill-rule="evenodd"/><path d="M 0 384.001 L 0 768.002 512.250 767.751 L 1024.500 767.500 1024.751 383.750 L 1025.003 0 512.501 0 L 0 0 0 384.001 M 0.495 384.500 C 0.495 595.700, 0.610 681.951, 0.750 576.169 C 0.890 470.386, 0.890 297.586, 0.750 192.169 C 0.610 86.751, 0.495 173.300, 0.495 384.500 M 731 126.986 L 626.500 127.500 622.019 130.525 C 617.768 133.396, 588.142 167.385, 588.048 169.500 C 588.019 170.162, 632.687 170.500, 720.143 170.500 L 852.282 170.500 861.391 159.907 C 878.394 140.135, 879.499 138.760, 880.350 136.328 C 881.736 132.370, 879.403 128.206, 875.135 127.021 C 873.136 126.466, 863.400 126.115, 853.500 126.242 C 843.600 126.369, 788.475 126.704, 731 126.986 M 559 201.628 C 553.775 207.955, 548.825 213.895, 548 214.828 C 543.446 219.978, 537 228.349, 537 229.115 C 537 229.624, 593.469 230, 669.908 230 L 802.816 230 814.658 215.846 C 821.171 208.061, 828.658 199.061, 831.295 195.846 L 836.091 190 702.295 190.062 L 568.500 190.123 559 201.628 M 271.269 227.978 C 269.491 229.061, 262.066 234.157, 254.769 239.302 C 247.471 244.446, 237.900 251.184, 233.500 254.273 C 229.100 257.363, 225.050 260.270, 224.500 260.734 C 223.950 261.197, 219.308 264.484, 214.184 268.038 C 209.061 271.592, 201.186 277.101, 196.684 280.280 C 192.183 283.459, 185.800 287.937, 182.500 290.231 C 179.200 292.526, 176.050 294.785, 175.500 295.252 C 174.555 296.054, 166.145 302.074, 147.153 315.542 C 137.026 322.723, 134.461 326.800, 135.349 334.300 C 136.170 341.232, 138.976 344.373, 153.706 354.852 C 160.743 359.859, 173.925 369.272, 183 375.771 C 192.075 382.270, 204.450 391.075, 210.500 395.339 C 216.550 399.602, 222.236 403.697, 223.136 404.438 C 224.036 405.179, 228.086 408.083, 232.136 410.891 C 243.510 418.777, 248.571 422.372, 252 425 C 253.732 426.327, 257.113 428.783, 259.513 430.457 C 269.410 437.360, 287.535 450.447, 288 451.027 C 288.275 451.370, 291.200 453.511, 294.500 455.786 C 297.800 458.061, 309.275 466.239, 320 473.961 C 330.725 481.682, 342.159 489.350, 345.410 491 L 351.319 494 459.910 493.988 C 550.053 493.978, 569.398 493.737, 573.786 492.569 C 583.256 490.048, 588.542 485.710, 603.110 468.500 C 604.973 466.300, 606.724 464.275, 607.003 464 C 607.281 463.725, 612.218 457.875, 617.972 451 C 623.727 444.125, 628.677 438.275, 628.972 438 C 629.268 437.725, 634.218 431.875, 639.972 425 C 645.727 418.125, 650.681 412.275, 650.981 412 C 651.282 411.725, 653.546 409.032, 656.014 406.015 C 658.481 402.999, 661.243 399.624, 662.151 398.515 C 669.242 389.858, 681.071 375.877, 683.738 373 C 685.523 371.075, 686.987 369.202, 686.991 368.838 C 687.015 367.002, 668.863 366.826, 550.537 367.513 C 435.493 368.182, 422.242 368.099, 420.851 366.708 C 419.565 365.422, 419.379 363.057, 419.757 352.829 C 420.307 337.947, 418.970 327.171, 416.068 323.095 C 414.911 321.471, 407.335 315.515, 399.232 309.860 C 391.130 304.205, 384.275 299.302, 384 298.964 C 383.725 298.626, 380.575 296.389, 377 293.993 C 373.425 291.597, 368.925 288.433, 367 286.963 C 361.724 282.934, 305.392 242.851, 301.175 240.125 C 299.154 238.818, 295.250 236.057, 292.500 233.989 C 286.250 229.288, 279.779 225.999, 276.790 226.004 C 275.530 226.006, 273.046 226.894, 271.269 227.978 M 507.490 263.166 C 501.445 270.407, 496.041 276.819, 495.479 277.416 C 494.918 278.012, 492.726 280.637, 490.609 283.250 L 486.759 288 620.765 288 L 754.770 288 756.280 285.750 C 757.111 284.512, 758.636 282.600, 759.669 281.500 C 763.086 277.862, 784.494 251.839, 784.833 250.911 C 785.033 250.366, 731.580 250, 651.823 250 L 518.479 250 507.490 263.166 M 463.243 315.816 C 459.801 320.062, 455.976 324.668, 454.743 326.051 C 450.199 331.144, 442.315 340.606, 439.579 344.250 L 436.763 348 570.262 348 L 703.761 348 708.747 342.250 C 721.970 327.004, 736 309.882, 736 308.992 C 736 308.341, 690.223 308.016, 602.750 308.048 L 469.500 308.096 463.243 315.816 M 228 330 C 223.072 334.928, 224.464 336.265, 260.809 361.507 C 269.340 367.432, 282.814 376.891, 300 389.019 C 309.625 395.812, 321.100 403.906, 325.500 407.006 C 329.900 410.106, 338.900 416.542, 345.500 421.308 C 352.100 426.074, 358.443 429.980, 359.595 429.987 C 360.747 429.994, 362.435 429.177, 363.345 428.171 C 364.836 426.524, 365 421.661, 365 379.171 C 365 333.333, 364.943 331.943, 363 330 C 361.041 328.041, 359.667 328, 295.500 328 C 231.333 328, 229.959 328.041, 228 330 M 48.073 556.750 C 48.113 557.163, 55.875 570.775, 65.323 587 L 82.500 616.500 87.500 616.500 L 92.500 616.500 108.735 587 C 117.664 570.775, 124.976 557.163, 124.985 556.750 C 124.993 556.337, 121.885 556, 118.079 556 L 111.158 556 103.133 571.250 C 98.720 579.638, 93.573 589.350, 91.695 592.834 L 88.282 599.167 76.391 577.598 L 64.500 556.028 56.250 556.014 C 51.712 556.006, 48.033 556.337, 48.073 556.750 M 137.235 586.250 L 137.500 616.500 144.250 616.796 L 151 617.091 151 586.546 L 151 556 143.985 556 L 136.971 556 137.235 586.250 M 173.235 586.250 L 173.500 616.500 204 616.500 L 234.500 616.500 234.796 609.750 L 235.091 603 211.046 603 L 187 603 187 597.500 L 187 592 201.046 592 L 215.091 592 214.796 585.250 L 214.500 578.500 200.750 578.222 L 187 577.944 187 573.972 L 187 570 211 570 L 235 570 235 563 L 235 556 203.985 556 L 172.971 556 173.235 586.250 M 248 563 L 248 570 261.482 570 L 274.963 570 275.232 593.250 L 275.500 616.500 282.500 616.500 L 289.500 616.500 289.768 593.278 L 290.037 570.056 303.768 569.778 C 319.346 569.463, 318.938 569.742, 317.529 560.343 L 316.877 556 282.439 556 L 248 556 248 563 M 332.235 586.250 L 332.500 616.500 339.500 616.500 L 346.500 616.500 347 596.616 L 347.500 576.731 371.494 596.910 L 395.489 617.088 400.494 616.794 L 405.500 616.500 405.765 586.250 L 406.029 556 399.015 556 L 392 556 392 576.501 L 392 597.001 367.750 576.506 L 343.500 556.010 337.735 556.005 L 331.971 556 332.235 586.250 M 450.121 558.634 C 449.461 560.082, 444.147 569.644, 438.312 579.884 C 432.477 590.123, 426.827 600.075, 425.755 602 C 424.684 603.925, 422.507 607.794, 420.917 610.597 C 419.328 613.401, 418.322 615.988, 418.681 616.347 C 419.040 616.706, 422.177 617, 425.652 617 L 431.971 617 434.963 611.073 C 436.609 607.813, 438.331 604.914, 438.790 604.630 C 439.756 604.033, 476.888 603.537, 477.413 604.114 C 477.605 604.326, 479.173 607.313, 480.896 610.750 L 484.029 617 491.514 617 C 496.835 617, 499.001 616.638, 499.003 615.750 C 499.005 615.063, 491.467 601.342, 482.253 585.260 L 465.500 556.019 458.411 556.010 C 451.719 556.001, 451.254 556.148, 450.121 558.634 M 511.235 586.250 L 511.500 616.500 518.500 616.500 L 525.500 616.500 525.772 596.619 L 526.043 576.738 532.272 584.716 C 535.697 589.103, 541.200 596.350, 544.500 600.819 C 548.534 606.282, 551.165 608.953, 552.530 608.972 C 554.004 608.992, 557.834 604.588, 566.530 592.873 L 578.500 576.746 579 596.623 L 579.500 616.500 586.500 616.500 L 593.500 616.500 593.765 586.250 L 594.029 556 587.046 556 L 580.062 556 567.281 572.984 C 560.252 582.326, 554.231 589.976, 553.901 589.984 C 553.292 590, 533.022 563.945, 529.652 558.814 C 527.868 556.098, 527.511 556, 519.387 556 L 510.971 556 511.235 586.250 M 647 586.503 L 647 617.091 653.750 616.796 L 660.500 616.500 660.783 605.250 L 661.066 594 681.884 594 C 694.087 594, 703.971 593.557, 705.770 592.930 C 710.897 591.143, 712.271 586.728, 711.847 573.396 C 711.503 562.542, 711.363 561.908, 708.722 559.266 L 705.957 556.500 676.479 556.207 L 647 555.915 647 586.503 M 736.263 557.116 C 730.501 558.780, 730 561.122, 730 586.403 C 730 600.767, 730.402 609.787, 731.110 611.343 C 733.332 616.220, 735.200 616.500, 765.500 616.500 C 795.800 616.500, 797.668 616.220, 799.890 611.343 C 800.602 609.780, 801 600.573, 801 585.675 C 801 559.652, 800.816 558.876, 794.221 557.044 C 789.589 555.758, 740.755 555.818, 736.263 557.116 M 827.606 556.868 C 826.014 557.216, 823.764 558.770, 822.606 560.323 C 820.758 562.801, 820.500 564.519, 820.500 574.367 C 820.500 592.594, 821.158 592.986, 851.750 592.994 L 872 593 872 598 L 872 603 852.500 603 L 833 603 833 599.500 C 833 595.547, 832.640 595.456, 824.500 597.364 L 819.500 598.535 819.506 604.669 C 819.516 615.996, 822.141 616.991, 852 616.983 C 877.019 616.977, 880.119 616.608, 883.493 613.234 C 885.900 610.827, 886 610.232, 886 598.287 C 886 585.870, 885.994 585.841, 883.077 582.923 L 880.154 580 857.577 580 L 835 580 835 575 L 835 570 853 570 L 871 570 871 572.941 C 871 574.559, 871.337 576.064, 871.750 576.286 C 872.163 576.508, 875.591 576.011, 879.368 575.181 L 886.237 573.671 885.597 568.230 C 884.211 556.433, 882.959 555.964, 853.282 556.118 C 840.752 556.183, 829.198 556.521, 827.606 556.868 M 900 563 L 900 570 913.482 570 L 926.963 570 927.232 593.250 L 927.500 616.500 934.500 616.500 L 941.500 616.500 941.768 593.250 L 942.037 570 955.518 570 L 969 570 969 563 L 969 556 934.500 556 L 900 556 900 563 M 457.320 570.204 C 455.278 572.849, 446.831 589.164, 447.275 589.608 C 447.528 589.861, 452.639 589.940, 458.633 589.784 L 469.532 589.500 463.926 579.204 C 459.773 571.575, 458.062 569.244, 457.320 570.204 M 661 575.500 L 661 581 677.500 581 C 692.667 581, 694.162 580.838, 696 579 C 698.279 576.721, 698.375 576.118, 697.025 572.565 L 696.050 570 678.525 570 L 661 570 661 575.500 M 744 586.500 L 744 603 765.500 603 L 787 603 787 586.500 L 787 570 765.500 570 L 744 570 744 586.500" stroke="none" fill="#fbfbfb" fill-rule="evenodd"/></svg>