<svg xmlns="http://www.w3.org/2000/svg" width="300" height="150" viewBox="0 0 300 150" version="1.1"><path d="M 186.463 1.285 C 184.214 2.626, 175 12.327, 175 13.354 C 175 13.709, 194.745 14, 218.879 14 L 262.757 14 267.476 8.476 C 270.293 5.179, 271.967 2.357, 271.629 1.476 C 271.142 0.207, 265.278 0.005, 229.781 0.035 C 199.238 0.062, 187.970 0.387, 186.463 1.285 M 163.613 25.500 L 157.871 32 202.185 31.977 L 246.500 31.953 251.750 26.055 C 254.637 22.811, 257 19.896, 257 19.578 C 257 19.260, 237.280 19, 213.178 19 L 169.355 19 163.613 25.500 M 51 44.347 C 39.175 52.220, 28.887 59.407, 28.138 60.318 C 24.818 64.356, 26.776 66.044, 62.485 89.933 L 96.967 113 133.733 112.996 C 168.195 112.993, 170.697 112.872, 173.641 111.077 C 176.773 109.168, 208 75.274, 208 73.784 C 208 73.353, 188.425 73, 164.500 73 L 121 73 121 68.082 C 121 65.377, 120.708 62.403, 120.352 61.474 C 119.648 59.640, 75.678 29.989, 73.703 30.016 C 73.041 30.025, 62.825 36.474, 51 44.347 M 147.671 43.250 L 142.152 49.500 186.010 49.760 L 229.867 50.021 235.184 44.419 C 238.108 41.338, 240.650 38.408, 240.833 37.908 C 241.030 37.373, 223.126 37, 197.178 37 L 153.190 37 147.671 43.250 M 131.512 61.250 L 125.855 67.500 169.678 67.787 L 213.500 68.074 218.750 62.490 C 221.637 59.419, 224 56.478, 224 55.953 C 224 55.364, 207.446 55, 180.584 55 L 137.168 55 131.512 61.250 M 58.471 63.047 C 58.102 63.644, 57.957 64.266, 58.150 64.427 C 60.853 66.700, 98.898 91.422, 100.227 91.770 C 101.946 92.219, 102.038 91.361, 101.777 77.374 L 101.500 62.500 80.321 62.230 C 65.886 62.047, 58.929 62.306, 58.471 63.047" stroke="none" fill="#fcbc0c" fill-rule="evenodd"/><path d="M 0 131.631 C 0 131.979, 2.284 136.254, 5.075 141.131 C 11.849 152.968, 12.903 152.966, 19.250 141.100 C 21.862 136.216, 24 131.946, 24 131.610 C 24 131.275, 22.933 131, 21.629 131 C 19.732 131, 18.579 132.288, 15.855 137.448 L 12.451 143.895 8.976 137.449 C 5.998 131.927, 5.106 131.002, 2.750 131.001 C 1.237 131.001, 0 131.284, 0 131.631 M 29 140.500 C 29 149.967, 29.009 150, 31.500 150 C 33.991 150, 34 149.967, 34 140.500 C 34 131.033, 33.991 131, 31.500 131 C 29.009 131, 29 131.033, 29 140.500 M 41 140.500 L 41 150 51.573 150 C 61.104 150, 62.114 149.827, 61.813 148.250 C 61.538 146.809, 60.200 146.448, 54.239 146.206 C 47.821 145.946, 47 145.691, 47 143.956 C 47 142.341, 47.697 142, 51 142 C 54.333 142, 55 141.667, 55 140 C 55 138.333, 54.333 138, 51 138 C 48.111 138, 47 137.583, 47 136.500 C 47 135.310, 48.444 135, 54 135 C 60.333 135, 61 134.810, 61 133 C 61 131.133, 60.333 131, 51 131 L 41 131 41 140.500 M 64 133 C 64 134.704, 64.667 135, 68.500 135 L 73 135 73 142.500 C 73 149.833, 73.056 150, 75.500 150 C 77.944 150, 78 149.833, 78 142.500 L 78 135 82 135 C 85.333 135, 86 134.667, 86 133 C 86 131.121, 85.333 131, 75 131 C 64.667 131, 64 131.121, 64 133 M 90 140.500 C 90 149.967, 90.009 150, 92.500 150 C 94.864 150, 95 149.700, 95 144.500 C 95 141.475, 95.268 139, 95.596 139 C 95.924 139, 99.012 141.475, 102.457 144.500 C 105.903 147.525, 109.684 150, 110.861 150 C 112.896 150, 113 149.539, 113 140.500 C 113 131.085, 112.978 131, 110.550 131 C 108.273 131, 108.079 131.401, 107.800 136.671 L 107.500 142.341 100.824 136.671 C 97.152 133.552, 93.214 131, 92.074 131 C 90.121 131, 90 131.554, 90 140.500 M 123.439 139.750 C 120.722 144.563, 118.350 148.838, 118.167 149.250 C 117.364 151.055, 123.013 149.845, 124 148 C 125.587 145.034, 135.158 145.099, 137.143 148.089 C 138.104 149.536, 139.349 150.074, 141.194 149.839 L 143.858 149.500 138.679 140.273 C 134.269 132.416, 133.120 131.043, 130.939 131.023 C 128.753 131.003, 127.652 132.285, 123.439 139.750 M 149 140.500 C 149 149.252, 149.153 150, 150.950 150 C 152.617 150, 152.944 149.183, 153.200 144.376 L 153.500 138.753 156.812 143.376 C 158.634 145.919, 160.526 148, 161.016 148 C 161.507 148, 163.504 145.910, 165.454 143.356 L 169 138.712 169 144.356 C 169 149.710, 169.129 150, 171.500 150 C 173.991 150, 174 149.967, 174 140.500 C 174 131.301, 173.929 131.002, 171.750 131.048 C 170.227 131.081, 168.192 132.834, 165.453 136.473 L 161.405 141.850 157.208 136.425 C 154.602 133.057, 152.250 131, 151.005 131 C 149.139 131, 149 131.658, 149 140.500 M 195 140.465 L 195 150 198 150 C 200.755 150, 201 149.717, 201 146.544 L 201 143.088 208.229 142.794 C 215.105 142.514, 215.506 142.365, 216.422 139.750 C 217.041 137.985, 217.041 136.015, 216.421 134.250 C 215.463 131.520, 215.382 131.498, 205.228 131.215 L 195 130.930 195 140.465 M 222.053 132.901 C 220.588 135.638, 220.733 146.253, 222.264 148.346 C 223.348 149.829, 225.020 150.034, 234.014 149.788 L 244.500 149.500 244.500 140.500 L 244.500 131.500 233.803 131.217 C 224.029 130.958, 223.015 131.103, 222.053 132.901 M 254.200 132.200 C 252.488 133.912, 252.716 139.573, 254.571 141.429 C 255.690 142.547, 258.091 143, 262.905 143 C 268.249 143, 269.667 143.315, 269.667 144.500 C 269.667 145.675, 268.296 146, 263.333 146 C 259.778 146, 257 145.561, 257 145 C 257 143.711, 253.307 143.694, 252.513 144.979 C 252.180 145.518, 252.403 146.884, 253.008 148.015 C 254.020 149.906, 254.888 150.048, 263.804 149.786 L 273.500 149.500 273.811 145.176 C 274.256 138.998, 273.014 138, 264.878 138 C 259.156 138, 258 137.723, 258 136.352 C 258 134.907, 258.986 134.780, 266 135.320 C 272.120 135.792, 274 135.639, 274 134.669 C 274 131.882, 271.474 131, 263.500 131 C 258.533 131, 254.936 131.464, 254.200 132.200 M 278 133 C 278 134.667, 278.667 135, 282 135 L 286 135 286 142.500 L 286 150 289 150 L 292 150 292 142.500 L 292 135 296 135 C 299.333 135, 300 134.667, 300 133 C 300 131.121, 299.333 131, 289 131 C 278.667 131, 278 131.121, 278 133 M 201 137 C 201 138.733, 201.667 139, 206 139 C 210.333 139, 211 138.733, 211 137 C 211 135.267, 210.333 135, 206 135 C 201.667 135, 201 135.267, 201 137 M 227 140.500 L 227 146 233.500 146 L 240 146 240 140.500 L 240 135 233.500 135 L 227 135 227 140.500 M 129.161 138.547 C 127.588 141.998, 127.589 142, 131.026 142 L 134.051 142 132.500 139 C 131.647 137.350, 130.807 136, 130.635 136 C 130.462 136, 129.799 137.146, 129.161 138.547" stroke="none" fill="#044c91" fill-rule="evenodd"/></svg>